<svg height="401pt" viewBox="0 -3 401.73141 401" width="401pt" xmlns="http://www.w3.org/2000/svg"><path d="m307.199219 193.488281c0 84.832031-68.769531 153.601563-153.597657 153.601563-84.832031 0-153.601562-68.769532-153.601562-153.601563s68.769531-153.597656 153.601562-153.597656c84.828126 0 153.597657 68.765625 153.597657 153.597656zm0 0" fill="#c1dbdc"/><path d="m334.507812 213.96875c0 58.4375-47.375 105.8125-105.816406 105.8125-58.4375 0-105.8125-47.375-105.8125-105.8125s47.375-105.8125 105.8125-105.8125c58.441406 0 105.816406 47.375 105.816406 105.8125zm0 0" fill="#ffce56"/><path d="m228.691406 326.609375c-62.105468 0-112.636718-50.53125-112.636718-112.640625s50.53125-112.640625 112.636718-112.640625c62.109375 0 112.640625 50.53125 112.640625 112.640625s-50.53125 112.640625-112.640625 112.640625zm0-211.628906c-54.578125 0-98.984375 44.410156-98.984375 98.988281s44.40625 98.988281 98.984375 98.988281c54.582032 0 98.988282-44.410156 98.988282-98.988281s-44.40625-98.988281-98.988282-98.988281zm0 0" fill="#4c241d"/><path d="m232.105469 196.902344c0 41.472656-33.621094 75.09375-75.09375 75.09375-41.472657 0-75.089844-33.621094-75.089844-75.09375s33.617187-75.09375 75.089844-75.09375c41.472656 0 75.09375 33.621094 75.09375 75.09375zm0 0" fill="#e66353"/><path d="m157.011719 278.820312c-45.171875 0-81.917969-36.746093-81.917969-81.917968s36.746094-81.921875 81.917969-81.921875c45.175781 0 81.921875 36.75 81.921875 81.921875s-36.75 81.917968-81.921875 81.917968zm0-150.183593c-37.640625 0-68.265625 30.621093-68.265625 68.265625 0 37.644531 30.625 68.265625 68.265625 68.265625s68.269531-30.621094 68.269531-68.265625c0-37.644532-30.628906-68.265625-68.269531-68.265625zm0 0" fill="#4c241d"/><path d="m284.988281 388.046875h-153.550781c-23.578125 0-42.691406-19.109375-42.691406-42.6875v-127.976563h238.933594v127.976563c0 23.578125-19.113282 42.6875-42.691407 42.6875zm0 0" fill="#bf7e68"/><path d="m284.984375 394.875h-153.546875c-27.304688 0-49.519531-22.214844-49.519531-49.515625v-127.976563c0-3.769531 3.054687-6.828124 6.828125-6.828124h238.933594c3.773437 0 6.824218 3.058593 6.824218 6.828124v127.976563c.003906 27.300781-22.210937 49.515625-49.519531 49.515625zm-189.410156-170.667969v121.152344c0 19.777344 16.085937 35.863281 35.867187 35.863281h153.546875c19.78125 0 35.867188-16.085937 35.867188-35.863281v-121.152344zm0 0" fill="#4c241d"/><path d="m326.410156 88.511719c-9.308594-6.421875-22.0625-4.082031-28.484375 5.226562l-66.972656 97.074219c7.644531 12.105469 17.742187 21.453125 30.816406 27.460938l69.867188-101.273438c6.425781-9.3125 4.085937-22.066406-5.226563-28.488281zm0 0" fill="#9dc1e4"/><path d="m261.773438 225.097656c-.957032 0-1.933594-.199218-2.851563-.621094-13.816406-6.351562-25.167969-16.449218-33.742187-30.015624-1.460938-2.3125-1.398438-5.273438.152343-7.523438l66.972657-97.074219c4.140624-6.003906 10.375-10.035156 17.546874-11.347656 7.167969-1.335937 14.425782.238281 20.433594 4.378906h.007813c6 4.140625 10.035156 10.375 11.347656 17.546875 1.316406 7.175782-.242187 14.429688-4.382813 20.433594l-69.867187 101.277344c-1.3125 1.890625-3.429687 2.945312-5.617187 2.945312zm-22.566407-34.230468c5.652344 7.914062 12.367188 14.046874 20.347657 18.601562l66.464843-96.347656c2.074219-3.003906 2.851563-6.628906 2.191407-10.214844-.660157-3.585938-2.671876-6.703125-5.679688-8.773438-3.003906-2.078124-6.640625-2.851562-10.210938-2.195312-3.585937.660156-6.707031 2.671875-8.773437 5.675781zm0 0" fill="#4c241d"/><path d="m331.09375 244.6875h-245.761719c-13.195312 0-23.890625-10.695312-23.890625-23.890625 0-13.199219 10.695313-23.894531 23.890625-23.894531h245.761719c13.195312 0 23.894531 10.695312 23.894531 23.894531 0 13.195313-10.699219 23.890625-23.894531 23.890625zm0 0" fill="#fff"/><path d="m331.09375 251.515625h-245.761719c-16.9375 0-30.71875-13.78125-30.71875-30.71875 0-16.941406 13.78125-30.722656 30.71875-30.722656h245.761719c16.941406 0 30.71875 13.78125 30.71875 30.722656 0 16.9375-13.78125 30.71875-30.71875 30.71875zm-245.761719-47.785156c-9.414062 0-17.066406 7.65625-17.066406 17.066406s7.652344 17.066406 17.066406 17.066406h245.761719c9.414062 0 17.066406-7.65625 17.066406-17.066406s-7.652344-17.066406-17.066406-17.066406zm0 0" fill="#4c241d"/><path d="m206.578125 332.527344c-9.785156 0-17.75-7.960938-17.75-17.746094 0-3.773438 3.050781-6.828125 6.824219-6.828125 3.773437 0 6.828125 3.054687 6.828125 6.828125 0 2.257812 1.839843 4.09375 4.097656 4.09375 2.261719 0 4.09375-1.835938 4.09375-4.09375 0-3.773438 3.054687-6.828125 6.828125-6.828125s6.824219 3.054687 6.824219 6.828125c0 9.785156-7.957031 17.746094-17.746094 17.746094zm0 0" fill="#4c241d"/><path d="m269.347656 303.597656c-3.773437 0-6.828125-3.058594-6.828125-6.828125 0-3.875-3.152343-7.023437-7.027343-7.023437-3.871094 0-7.019532 3.152344-7.019532 7.023437 0 3.769531-3.050781 6.828125-6.824218 6.828125-3.773438 0-6.828126-3.058594-6.828126-6.828125 0-11.402343 9.273438-20.675781 20.671876-20.675781 11.398437 0 20.679687 9.277344 20.679687 20.675781 0 3.769531-3.050781 6.828125-6.824219 6.828125zm0 0" fill="#4c241d"/><path d="m270.691406 327.066406h-22.792968c-3.773438 0-6.824219-3.058594-6.824219-6.828125s3.050781-6.824219 6.824219-6.824219h22.792968c3.773438 0 6.828125 3.054688 6.828125 6.824219s-3.054687 6.828125-6.828125 6.828125zm0 0" fill="#e7d1c4"/><path d="m170.558594 303.597656c-3.773438 0-6.824219-3.058594-6.824219-6.828125 0-3.875-3.15625-7.023437-7.027344-7.023437-3.875 0-7.019531 3.152344-7.019531 7.023437 0 3.769531-3.054688 6.828125-6.828125 6.828125s-6.824219-3.058594-6.824219-6.828125c0-11.402343 9.273438-20.675781 20.671875-20.675781 11.398438 0 20.679688 9.277344 20.679688 20.675781 0 3.769531-3.054688 6.828125-6.828125 6.828125zm0 0" fill="#4c241d"/><path d="m164.304688 327.066406h-22.796876c-3.773437 0-6.828124-3.058594-6.828124-6.828125s3.054687-6.824219 6.828124-6.824219h22.796876c3.773437 0 6.828124 3.054688 6.828124 6.824219s-3.054687 6.828125-6.828124 6.828125zm0 0" fill="#e7d1c4"/><g fill="#4c241d"><path d="m369.679688 363.117188c-1.746094 0-3.492188-.667969-4.828126-2-2.664062-2.667969-2.664062-6.988282 0-9.65625l25.226563-25.222657c2.667969-2.667969 6.988281-2.667969 9.652344 0 2.667969 2.664063 2.667969 6.984375 0 9.652344l-25.226563 25.226563c-1.332031 1.332031-3.078125 2-4.824218 2zm0 0"/><path d="m394.90625 363.117188c-1.746094 0-3.496094-.667969-4.828125-2l-25.226563-25.226563c-2.664062-2.667969-2.664062-6.988281 0-9.652344 2.667969-2.667969 6.988282-2.667969 9.652344 0l25.226563 25.222657c2.667969 2.667968 2.667969 6.988281 0 9.65625-1.332031 1.332031-3.078125 2-4.824219 2zm0 0"/><path d="m42 96.875c-1.746094 0-3.496094-.667969-4.828125-2-2.664063-2.664062-2.664063-6.984375 0-9.652344l25.226563-25.226562c2.667968-2.667969 6.988281-2.667969 9.652343 0 2.667969 2.664062 2.667969 6.984375 0 9.652344l-25.226562 25.226562c-1.332031 1.332031-3.078125 2-4.824219 2zm0 0"/><path d="m67.226562 96.875c-1.746093 0-3.496093-.667969-4.828124-2l-25.226563-25.226562c-2.664063-2.664063-2.664063-6.984376 0-9.652344 2.667969-2.664063 6.988281-2.664063 9.652344 0l25.226562 25.226562c2.667969 2.667969 2.667969 6.988282 0 9.652344-1.332031 1.332031-3.078125 2-4.824219 2zm0 0"/><path d="m283.308594 45.277344c-12.390625 0-22.460938-10.070313-22.460938-22.457032 0-12.382812 10.070313-22.453124 22.460938-22.453124 12.386718 0 22.457031 10.070312 22.457031 22.453124 0 12.386719-10.074219 22.457032-22.457031 22.457032zm0-31.257813c-4.855469 0-8.808594 3.949219-8.808594 8.800781 0 4.855469 3.953125 8.804688 8.808594 8.804688 4.851562 0 8.804687-3.949219 8.804687-8.804688 0-4.851562-3.953125-8.800781-8.804687-8.800781zm0 0"/></g></svg>